<?xml version="1.0" encoding="utf-8"?>
<!-- Generator: Adobe Illustrator 27.8.1, SVG Export Plug-In . SVG Version: 6.00 Build 0)  -->
<svg version="1.1" id="Layer_1" xmlns="http://www.w3.org/2000/svg" xmlns:xlink="http://www.w3.org/1999/xlink" x="0px" y="0px"
	 viewBox="0 0 1170.38 507.01" style="enable-background:new 0 0 1170.38 507.01;" xml:space="preserve">
<style type="text/css">
	.st0{fill:#293054;}
	.st1{fill:#00B1B1;}
</style>
<g>
	<path class="st0" d="M73.95,205.72c8.65-5.08,18.6-7.62,29.87-7.62c9.61,0,18.47,1.72,26.57,5.15c8.1,3.44,15.04,8.59,20.8,15.45
		l29.66-30.07c-9.34-10.98-20.67-19.43-33.98-25.34c-13.32-5.9-27.67-8.86-43.05-8.86c-19.5,0-37.15,4.53-52.94,13.59
		c-15.8,9.06-28.22,21.36-37.28,36.87C4.53,220.41,0,237.92,0,257.42c0,19.23,4.53,36.66,13.59,52.32
		c9.06,15.65,21.48,28.01,37.28,37.08c15.79,9.06,33.43,13.6,52.93,13.6c15.38,0,29.72-2.95,43.05-8.86
		c13.32-5.9,24.65-14.35,33.99-25.33l-29.66-30.07c-5.77,6.87-12.71,12.02-20.8,15.45c-8.1,3.44-16.96,5.15-26.57,5.15
		c-11.26,0-21.22-2.54-29.87-7.62c-8.65-5.08-15.39-12.08-20.19-21.01c-4.81-8.92-7.21-19.16-7.21-30.69c0-11.81,2.4-22.1,7.21-30.9
		C58.56,217.74,65.3,210.8,73.95,205.72z"/>
	<g>
		<g>
			<path class="st0" d="M352.63,180.53c-5.7-6.57-12.49-12.04-20.39-16.41c-11.68-6.45-25.06-9.68-40.16-9.68
				c-17.86,0-33.99,4.6-48.4,13.8c-14.42,9.2-25.82,21.56-34.19,37.07c-8.38,15.52-12.56,33.03-12.56,52.52
				c0,19.23,4.18,36.6,12.56,52.11c8.37,15.52,19.77,27.81,34.19,36.87c14.42,9.06,30.55,13.6,48.4,13.6
				c15.1,0,28.56-3.23,40.37-9.68c7.85-4.29,14.58-9.65,20.18-16.07l0,21.63l45.31,0l0-197.74l-45.31,0L352.63,180.53z
				 M340.07,300.68c-10.3,11.26-23.83,16.89-40.58,16.89c-10.99,0-20.67-2.54-29.04-7.62c-8.38-5.08-14.97-12.15-19.77-21.22
				c-4.81-9.06-7.21-19.5-7.21-31.31c0-11.81,2.4-22.25,7.21-31.31c4.8-9.06,11.39-16.13,19.77-21.22
				c8.37-5.08,18.06-7.62,29.04-7.62c11.26,0,21.07,2.54,29.45,7.62c8.37,5.08,14.89,12.15,19.57,21.22c4.67,9.06,7,19.5,7,31.31
				C355.52,275,350.37,289.42,340.07,300.68z"/>
			<path class="st0" d="M579.46,165.77c-11.53-7.55-24.72-11.33-39.55-11.33c-14.56,0-27.67,3.36-39.34,10.09
				c-7.6,4.39-14.12,9.83-19.57,16.3l0-22.28l-45.31,0l0,197.74l45.31,0l0-114.11l0,0c0-8.79,1.92-16.61,5.77-23.48
				c3.84-6.86,9.2-12.22,16.07-16.07c6.86-3.84,14.69-5.77,23.48-5.77c13.18,0,23.96,4.26,32.34,12.77
				c8.37,8.52,12.57,19.36,12.57,32.54l0,114.11l45.31,0l0-124c0-12.91-3.3-25.33-9.89-37.28
				C600.06,183.07,591,173.33,579.46,165.77z"/>
			<path class="st0" d="M795.61,168.04c-15.66-9.06-33.23-13.59-52.73-13.6c-19.23,0-36.66,4.6-52.32,13.8
				c-15.65,9.2-28.08,21.49-37.28,36.87c-9.2,15.38-13.8,32.68-13.8,51.91c0,19.23,4.6,36.66,13.8,52.32
				c9.2,15.65,21.63,28.09,37.28,37.28c15.65,9.21,33.09,13.8,52.32,13.8c19.5,0,37.07-4.6,52.73-13.8
				c15.65-9.2,28.08-21.63,37.28-37.28c9.2-15.65,13.8-33.09,13.8-52.32c0-19.22-4.6-36.59-13.8-52.11
				C823.68,189.4,811.26,177.11,795.61,168.04z M792.93,287.92c-4.81,9.06-11.54,16.14-20.19,21.22
				c-8.65,5.08-18.61,7.62-29.87,7.62c-10.99,0-20.8-2.54-29.45-7.62c-8.65-5.08-15.39-12.15-20.19-21.22
				c-4.81-9.06-7.21-19.36-7.21-30.9c0-11.53,2.4-21.69,7.21-30.49c4.8-8.79,11.54-15.72,20.19-20.8
				c8.65-5.08,18.47-7.62,29.45-7.62c11.26,0,21.15,2.54,29.66,7.62c8.51,5.08,15.24,12.02,20.18,20.8
				c4.94,8.79,7.42,18.95,7.42,30.49C800.14,268.56,797.73,278.86,792.93,287.92z"/>
			<path class="st0" d="M1053.66,202.24c-8.1-14.83-19.23-26.5-33.37-35.02c-14.15-8.51-30.42-12.77-48.82-12.77
				c-18.95,0-36.19,4.53-51.7,13.59c-15.52,9.06-27.81,21.36-36.87,36.87c-9.06,15.52-13.59,33.03-13.59,52.52
				c0,19.5,4.59,37.08,13.8,52.73c9.2,15.65,21.69,27.95,37.49,36.87c15.79,8.93,33.57,13.39,53.35,13.39
				c15.38,0,29.93-2.88,43.67-8.65c13.73-5.77,25.4-14.28,35.01-25.54l-28.83-29.25c-6.05,6.87-13.39,12.09-22.04,15.65
				c-8.65,3.57-18.06,5.35-28.22,5.35c-11.81,0-22.24-2.54-31.31-7.62c-9.06-5.08-16.07-12.29-21.01-21.63
				c-2.36-4.46-4.15-9.27-5.38-14.42l147.51,0c0.82-4.12,1.44-7.89,1.85-11.33c0.41-3.43,0.62-6.8,0.62-10.09
				C1065.82,233.96,1061.76,217.07,1053.66,202.24z M920.81,224.28c4.67-8.92,11.26-15.86,19.77-20.8
				c8.51-4.94,18.54-7.42,30.07-7.42c10.98,0,20.25,2.2,27.8,6.59c7.55,4.4,13.39,10.71,17.51,18.95c2.3,4.61,4.03,9.84,5.21,15.65
				l-105.2,0C917.14,232.59,918.73,228.25,920.81,224.28z"/>
		</g>
		<path class="st1" d="M998.74,126.77L998.74,126.77c1.35,1.6,3.31,2.52,5.41,2.61c27.51,1.21,54.44,13.48,73.56,36.21
			c19.12,22.74,26.58,51.38,23.06,78.69c-0.27,2.08,0.3,4.17,1.64,5.77v0c3.66,4.35,10.65,3.11,12.59-2.23l54.93-151.43
			c1.94-5.34-2.63-10.78-8.23-9.78l-158.6,28.14C997.5,115.74,995.08,122.42,998.74,126.77z"/>
	</g>
</g>
</svg>
